<svg xmlns="http://www.w3.org/2000/svg" version="1.1" xmlns:xlink="http://www.w3.org/1999/xlink" xmlns:svgjs="http://svgjs.com/svgjs" width="85" height="130"><rect width="45" height="3" x="19.5" y="27.857142857142858" stroke-width="0" fill="#666666"></rect><line x1="19.5" y1="30.857142857142858" x2="19.5" y2="95.14285714285715" stroke-width="1" stroke="#666666"></line><line x1="34.5" y1="30.857142857142858" x2="34.5" y2="95.14285714285715" stroke-width="1" stroke="#666666"></line><line x1="49.5" y1="30.857142857142858" x2="49.5" y2="95.14285714285715" stroke-width="1" stroke="#666666"></line><line x1="64.5" y1="30.857142857142858" x2="64.5" y2="95.14285714285715" stroke-width="1" stroke="#666666"></line><line x1="19.5" y1="30.857142857142858" x2="64.5" y2="30.857142857142858" stroke-width="1" stroke="#666666"></line><line x1="19.5" y1="43.714285714285715" x2="64.5" y2="43.714285714285715" stroke-width="1" stroke="#666666"></line><line x1="19.5" y1="56.57142857142857" x2="64.5" y2="56.57142857142857" stroke-width="1" stroke="#666666"></line><line x1="19.5" y1="69.42857142857143" x2="64.5" y2="69.42857142857143" stroke-width="1" stroke="#666666"></line><line x1="19.5" y1="82.28571428571429" x2="64.5" y2="82.28571428571429" stroke-width="1" stroke="#666666"></line><line x1="19.5" y1="95.14285714285715" x2="64.5" y2="95.14285714285715" stroke-width="1" stroke="#666666"></line><circle r="4" cx="64.5" cy="21.42857142857143" stroke-width="1" stroke="#666666" fill="#ffffff"></circle><circle r="4" cx="49.5" cy="50.14285714285714" stroke-width="1" stroke="#666666" fill="#666666"></circle><circle r="4" cx="34.5" cy="63" stroke-width="1" stroke="#666666" fill="#666666"></circle><circle r="4" cx="19.5" cy="75.85714285714286" stroke-width="1" stroke="#666666" fill="#666666"></circle><text stroke="#666666" fill="#666666" font-family="-apple-system, BlinkMacSystemFont, &quot;Segoe UI&quot;, Roboto, Helvetica, Arial, sans-serif, &quot;Apple Color Emoji&quot;, &quot;Segoe UI Emoji&quot;, &quot;Segoe UI Symbol&quot;" font-size="15" font-style="light" font-weight="500" x="13.211669921875" y="96.03271484375" svgjs:data="{&quot;leading&quot;:&quot;1.3&quot;}"><tspan dy="19.5" x="13.211669921875" svgjs:data="{&quot;leading&quot;:&quot;1.3&quot;,&quot;newLined&quot;:true}">Bbmaj7</tspan></text></svg>